# xmcd
#
# Track frame offsets: 
#        150
#        15087
#        32495
#        51697
#        65734
#        83025
#        101019
#        117043
#        133874
#        151126
#        166850
#        181041
#
# Disc length: 2695 seconds
#
# Revision: 8
# Processed by: cddbd v1.5.2PL0 Copyright (c) Steve Scherf et al.
# Submitted via: ExactAudioCopy v1.0b1
#
DISCID=8e0a850c
DTITLE=Eilleen Shania Twain - Beginnings 1989-1990
DYEAR=1999
DGENRE=Country
TTITLE0=Wild And Wicked
TTITLE1=Two Hearts One Love
TTITLE2=I Lost My Hearts When I Found You
TTITLE3=Bite My Lip
TTITLE4=(Don't Gimme That) Once Over
TTITLE5=Hate To Love
TTITLE6=Send It With Love
TTITLE7=LUV Eyes
TTITLE8=Rhythm Made Me Do It
TTITLE9=Half Breed
TTITLE10=For The Love Of Him
TTITLE11=For The Love Of Him (Dance Mix)
EXTD=YEAR: 1999
EXTT0=
EXTT1=
EXTT2=
EXTT3=
EXTT4=
EXTT5=
EXTT6=
EXTT7=
EXTT8=
EXTT9=
EXTT10=
EXTT11=
PLAYORDER=
